<svg width="34" height="28" viewBox="0 0 34 28" fill="none" xmlns="http://www.w3.org/2000/svg">
<path d="M19.5387 11.1559C19.0184 11.1559 18.5967 10.7342 18.5967 10.2138V0.90332H15.3005V10.2138C15.3005 10.7342 14.8788 11.1559 14.3585 11.1559H0.871094V14.452H14.3585C14.8788 14.452 15.3005 14.8737 15.3005 15.3941V24.7021H18.5967V15.3941C18.5967 14.8737 19.0184 14.4521 19.5387 14.4521H33.0261V11.1559H19.5387Z" fill="black"/>
<path d="M20.4808 7.93975L27.4401 0.980317C27.1065 0.928912 26.7694 0.903171 26.4318 0.903321H20.4808V7.93975ZM21.8129 9.27179H33.0261V7.49761C33.0261 4.9482 31.5719 2.73245 29.4495 1.63535L21.8129 9.27179ZM21.8092 16.3361L29.4285 23.9811C31.5622 22.8881 33.0261 20.6657 33.0261 18.1079V16.3362L21.8092 16.3361ZM13.4165 7.93975V0.903321H7.46539C7.12267 0.903321 6.78586 0.929573 6.45709 0.98038L13.4165 7.93975ZM20.4808 17.6722V24.7021H26.4318C26.7657 24.7021 27.0938 24.6771 27.4141 24.629L20.4808 17.6722ZM12.0843 9.27179L4.44765 1.63535C2.32536 2.7322 0.871094 4.9482 0.871094 7.49761V9.27179H12.0843ZM12.0843 16.3361H0.871094V18.1078C0.871094 20.658 2.32611 22.8743 4.44941 23.9711L12.0843 16.3361ZM13.4165 17.6685L6.45929 24.6256C6.78731 24.6758 7.12343 24.7021 7.46539 24.7021H8.44398L10.7375 27.6118C10.8257 27.7237 10.9381 27.8141 11.0663 27.8763C11.1944 27.9385 11.335 27.9708 11.4775 27.9708C11.6199 27.9708 11.7605 27.9385 11.8886 27.8763C12.0168 27.8141 12.1292 27.7237 12.2174 27.6118L13.4165 26.0906V17.6685Z" fill="black"/>
</svg>
