<svg width="32" height="32" viewBox="0 0 32 32" fill="none" xmlns="http://www.w3.org/2000/svg">
<path fill-rule="evenodd" clip-rule="evenodd" d="M1.63926 16.4993H13.6297C14.5313 16.4993 15.2689 17.2482 15.2689 18.1635V30.3359C15.2689 31.2512 14.5312 32 13.6297 32H1.63926C0.737694 32.0001 0 31.2512 0 30.3359V18.1635C0 17.2482 0.737694 16.4993 1.63926 16.4993ZM18.3703 16.4992H30.3607C31.2624 16.4992 32 17.2481 32 18.1634V30.3358C32 31.2511 31.2623 32 30.3607 32H18.3703C17.4687 32 16.7311 31.2511 16.7311 30.3359V18.1635C16.731 17.2481 17.4687 16.4992 18.3703 16.4992ZM10.0411 0H22.0316C22.9332 0 23.6708 0.74889 23.6708 1.66414V13.8365C23.6708 14.7519 22.9331 15.5008 22.0316 15.5008H10.0411C9.13949 15.5008 8.40186 14.7519 8.40186 13.8365V1.66414C8.40179 0.74889 9.13949 0 10.0411 0ZM16.2575 3.06386C16.1882 2.84622 15.8843 2.84622 15.8152 3.06386L14.7964 6.26797C14.7817 6.31579 14.7522 6.35751 14.7122 6.38695C14.6723 6.41639 14.6241 6.43198 14.5748 6.4314L11.2582 6.42489C11.0331 6.42446 10.9392 6.71798 11.1215 6.85194L13.8084 8.82576C13.8487 8.85471 13.8787 8.89608 13.8939 8.94372C13.9092 8.99136 13.9088 9.04272 13.893 9.09017L12.8621 12.2903C12.7924 12.5066 13.0388 12.6884 13.2199 12.5542L15.8993 10.5699C15.9389 10.54 15.987 10.5238 16.0363 10.5238C16.0856 10.5238 16.1337 10.54 16.1733 10.5699L18.8527 12.5542C19.0338 12.6883 19.2802 12.5066 19.2105 12.2903L18.1796 9.09017C18.1638 9.04272 18.1635 8.99136 18.1787 8.94372C18.194 8.89608 18.2239 8.85471 18.2642 8.82576L20.9511 6.85194C21.1335 6.71798 21.0395 6.42446 20.8145 6.42489L17.4978 6.4314C17.4485 6.43199 17.4003 6.41641 17.3604 6.38697C17.3204 6.35752 17.2909 6.31579 17.2762 6.26797L16.2575 3.06386ZM7.63451 18.8292L2.29502 24.2498L7.63451 29.6703L12.974 24.2498L7.63451 18.8292ZM24.3655 19.3998C21.727 19.3998 19.5881 21.5711 19.5881 24.2496C19.5881 26.9282 21.727 29.0996 24.3655 29.0996C27.004 29.0996 29.1429 26.9282 29.1429 24.2496C29.1429 21.5711 27.004 19.3998 24.3655 19.3998Z" fill="black"/>
</svg>
