<svg width="37" height="37" viewBox="0 0 37 37" fill="none" xmlns="http://www.w3.org/2000/svg">
<rect width="37" height="37" rx="18.5" fill="url(#paint0_linear_43_132)"/>
<path d="M10.3716 21.4C9.47121 19.9255 8.99648 18.2305 9.00002 16.5028C9.00002 11.254 13.2984 7 18.6 7C23.9016 7 28.2 11.254 28.2 16.5028C28.2036 18.2305 27.7288 19.9255 26.8284 21.4M22.2 27.4L22.044 28.1764C21.876 29.0248 21.7908 29.4484 21.6 29.7844C21.306 30.3023 20.83 30.6923 20.2644 30.8788C19.8984 31 19.464 31 18.6 31C17.736 31 17.3016 31 16.9356 30.88C16.3699 30.6932 15.8938 30.3027 15.6 29.7844C15.4092 29.4484 15.324 29.0248 15.156 28.1764L15 27.4M13.0596 25.1176C12.9492 24.7864 12.894 24.6196 12.9 24.4852C12.9068 24.3462 12.9537 24.2122 13.0351 24.0993C13.1164 23.9865 13.2287 23.8996 13.3584 23.8492C13.4832 23.8 13.6584 23.8 14.0064 23.8H23.1936C23.5428 23.8 23.7168 23.8 23.8416 23.848C23.9715 23.8985 24.0839 23.9855 24.1653 24.0986C24.2467 24.2117 24.2935 24.346 24.3 24.4852C24.306 24.6196 24.2508 24.7852 24.1404 25.1176C23.9364 25.7308 23.8344 26.038 23.6772 26.2864C23.3484 26.8055 22.833 27.1788 22.2372 27.3292C21.9516 27.4 21.63 27.4 20.9856 27.4H16.2144C15.57 27.4 15.2472 27.4 14.9628 27.328C14.3672 27.1779 13.8518 26.8051 13.5228 26.2864C13.3656 26.038 13.2636 25.7308 13.0596 25.1176Z" stroke="black" stroke-width="2.5" stroke-linecap="round" stroke-linejoin="round"/>
<path d="M14.0992 16.3004L16.7992 19.0004V23.8004M23.0992 16.3004L20.3992 19.0004V23.8004M14.0992 17.2004C14.3379 17.2004 14.5668 17.1056 14.7356 16.9368C14.9044 16.768 14.9992 16.5391 14.9992 16.3004C14.9992 16.0617 14.9044 15.8328 14.7356 15.664C14.5668 15.4952 14.3379 15.4004 14.0992 15.4004C13.8605 15.4004 13.6316 15.4952 13.4628 15.664C13.294 15.8328 13.1992 16.0617 13.1992 16.3004C13.1992 16.5391 13.294 16.768 13.4628 16.9368C13.6316 17.1056 13.8605 17.2004 14.0992 17.2004ZM23.0992 17.2004C22.8605 17.2004 22.6316 17.1056 22.4628 16.9368C22.294 16.768 22.1992 16.5391 22.1992 16.3004C22.1992 16.0617 22.294 15.8328 22.4628 15.664C22.6316 15.4952 22.8605 15.4004 23.0992 15.4004C23.3379 15.4004 23.5668 15.4952 23.7356 15.664C23.9044 15.8328 23.9992 16.0617 23.9992 16.3004C23.9992 16.5391 23.9044 16.768 23.7356 16.9368C23.5668 17.1056 23.3379 17.2004 23.0992 17.2004Z" stroke="black" stroke-width="2.5" stroke-linecap="round" stroke-linejoin="round"/>
<defs>
<linearGradient id="paint0_linear_43_132" x1="-8.10219" y1="37" x2="41.5937" y2="36.0373" gradientUnits="userSpaceOnUse">
<stop stop-color="#E67647"/>
<stop offset="1" stop-color="#EDDF3B"/>
</linearGradient>
</defs>
</svg>
