<svg width="37" height="37" viewBox="0 0 37 37" fill="none" xmlns="http://www.w3.org/2000/svg">
<rect width="37" height="37" rx="18.5" fill="url(#paint0_linear_43_130)"/>
<path d="M23.95 21C24.05 20.175 24.125 19.35 24.125 18.5C24.125 17.65 24.05 16.825 23.95 16H28.175C28.375 16.8 28.5 17.6375 28.5 18.5C28.5 19.3625 28.375 20.2 28.175 21M21.7375 27.95C22.4875 26.5625 23.0625 25.0625 23.4625 23.5H27.15C25.939 25.5853 24.0176 27.165 21.7375 27.95ZM21.425 21H15.575C15.45 20.175 15.375 19.35 15.375 18.5C15.375 17.65 15.45 16.8125 15.575 16H21.425C21.5375 16.8125 21.625 17.65 21.625 18.5C21.625 19.35 21.5375 20.175 21.425 21ZM18.5 28.45C17.4625 26.95 16.625 25.2875 16.1125 23.5H20.8875C20.375 25.2875 19.5375 26.95 18.5 28.45ZM13.5 13.5H9.85C11.0483 11.4088 12.9683 9.82655 15.25 9.05C14.5 10.4375 13.9375 11.9375 13.5 13.5ZM9.85 23.5H13.5C13.9375 25.0625 14.5 26.5625 15.25 27.95C12.9728 27.1654 11.0554 25.5852 9.85 23.5ZM8.825 21C8.625 20.2 8.5 19.3625 8.5 18.5C8.5 17.6375 8.625 16.8 8.825 16H13.05C12.95 16.825 12.875 17.65 12.875 18.5C12.875 19.35 12.95 20.175 13.05 21M18.5 8.5375C19.5375 10.0375 20.375 11.7125 20.8875 13.5H16.1125C16.625 11.7125 17.4625 10.0375 18.5 8.5375ZM27.15 13.5H23.4625C23.0707 11.952 22.4914 10.4576 21.7375 9.05C24.0375 9.8375 25.95 11.425 27.15 13.5ZM18.5 6C11.5875 6 6 11.625 6 18.5C6 21.8152 7.31696 24.9946 9.66117 27.3388C10.8219 28.4996 12.1999 29.4203 13.7165 30.0485C15.233 30.6767 16.8585 31 18.5 31C21.8152 31 24.9946 29.683 27.3388 27.3388C29.683 24.9946 31 21.8152 31 18.5C31 16.8585 30.6767 15.233 30.0485 13.7165C29.4203 12.1999 28.4996 10.8219 27.3388 9.66117C26.1781 8.50043 24.8001 7.57969 23.2835 6.95151C21.767 6.32332 20.1415 6 18.5 6Z" fill="black"/>
<defs>
<linearGradient id="paint0_linear_43_130" x1="-8.10219" y1="37" x2="41.5937" y2="36.0373" gradientUnits="userSpaceOnUse">
<stop stop-color="#E67647"/>
<stop offset="1" stop-color="#EDDF3B"/>
</linearGradient>
</defs>
</svg>
