<svg width="40" height="40" viewBox="0 0 40 40" fill="none" xmlns="http://www.w3.org/2000/svg">
<rect width="40" height="40" rx="8" fill="url(#paint0_linear_43_166)"/>
<path d="M20 8C26.6276 8 32 13.3724 32 20C32 26.6276 26.6276 32 20 32C17.8793 32.0036 15.7959 31.4424 13.964 30.374L8.00482 32L9.62722 26.0384C8.55797 24.2059 7.9963 22.1216 8.00002 20C8.00002 13.3724 13.3724 8 20 8ZM15.9104 14.36L15.6704 14.3696C15.5152 14.3803 15.3636 14.421 15.224 14.4896C15.0939 14.5634 14.9751 14.6556 14.8712 14.7632C14.7272 14.8988 14.6456 15.0164 14.558 15.1304C14.1142 15.7075 13.8752 16.416 13.8788 17.144C13.8812 17.732 14.0348 18.3044 14.2748 18.8396C14.7656 19.922 15.5732 21.068 16.6388 22.13C16.8956 22.3856 17.1476 22.6424 17.4188 22.8812C18.7429 24.0469 20.3207 24.8876 22.0268 25.3364L22.7084 25.4408C22.9304 25.4528 23.1524 25.436 23.3756 25.4252C23.725 25.4068 24.0662 25.3122 24.3752 25.148C24.5322 25.0668 24.6856 24.9787 24.8348 24.884C24.8348 24.884 24.8856 24.8496 24.9848 24.776C25.1468 24.656 25.2464 24.5708 25.3808 24.4304C25.4816 24.3264 25.5656 24.2056 25.6328 24.068C25.7264 23.8724 25.82 23.4992 25.8584 23.1884C25.8872 22.9508 25.8788 22.8212 25.8752 22.7408C25.8704 22.6124 25.7636 22.4792 25.6472 22.4228L24.9488 22.1096C24.9488 22.1096 23.9048 21.6548 23.2664 21.3644C23.1996 21.3353 23.128 21.3186 23.0552 21.3152C22.9731 21.3066 22.8901 21.3158 22.8118 21.3421C22.7336 21.3684 22.6619 21.4112 22.6016 21.4676C22.5956 21.4652 22.5152 21.5336 21.6476 22.5848C21.5978 22.6517 21.5292 22.7023 21.4506 22.7301C21.3719 22.7578 21.2868 22.7616 21.206 22.7408C21.1278 22.7199 21.0512 22.6935 20.9768 22.6616C20.828 22.5992 20.7764 22.5752 20.6744 22.532C19.9855 22.2319 19.3477 21.8258 18.7844 21.3284C18.6332 21.1964 18.4928 21.0524 18.3488 20.9132C17.8767 20.461 17.4653 19.9496 17.1248 19.3916L17.054 19.2776C17.0039 19.2005 16.9629 19.118 16.9316 19.0316C16.886 18.8552 17.0048 18.7136 17.0048 18.7136C17.0048 18.7136 17.2964 18.3944 17.432 18.2216C17.564 18.0536 17.6756 17.8904 17.7476 17.774C17.8892 17.546 17.9336 17.312 17.8592 17.1308C17.5232 16.31 17.176 15.4936 16.8176 14.6816C16.7468 14.5208 16.5368 14.4056 16.346 14.3828C16.2812 14.3748 16.2164 14.3684 16.1516 14.3636C15.9905 14.3544 15.8289 14.356 15.668 14.3684L15.9104 14.36Z" fill="black"/>
<defs>
<linearGradient id="paint0_linear_43_166" x1="-20.5158" y1="58.3333" x2="45.5306" y2="56.6065" gradientUnits="userSpaceOnUse">
<stop stop-color="#E64847"/>
<stop offset="1" stop-color="#EDDF3B"/>
</linearGradient>
</defs>
</svg>
