<svg width="40" height="40" viewBox="0 0 40 40" fill="none" xmlns="http://www.w3.org/2000/svg">
<rect width="40" height="40" rx="8" fill="url(#paint0_linear_43_164)"/>
<path d="M21.2336 8C22.5835 8.0036 23.2687 8.0108 23.8603 8.0276L24.0931 8.036C24.3619 8.0456 24.627 8.0576 24.9474 8.072C26.2242 8.132 27.0953 8.33359 27.8597 8.62998C28.6516 8.93478 29.3188 9.34757 29.986 10.0136C30.5964 10.6132 31.0685 11.3389 31.3695 12.1399C31.6659 12.9043 31.8675 13.7755 31.9275 15.0534C31.9419 15.3726 31.9539 15.6378 31.9635 15.9078L31.9707 16.1406C31.9887 16.731 31.9959 17.4162 31.9983 18.7661L31.9995 19.6613V21.2333C32.0024 22.1085 31.9932 22.9838 31.9719 23.8588L31.9647 24.0916C31.9551 24.3616 31.9431 24.6268 31.9287 24.946C31.8687 26.224 31.6647 27.0939 31.3695 27.8595C31.0685 28.6605 30.5964 29.3862 29.986 29.9859C29.3863 30.5963 28.6607 31.0685 27.8597 31.3694C27.0953 31.6658 26.2242 31.8674 24.9474 31.9274L24.0931 31.9634L23.8603 31.9706C23.2687 31.9874 22.5835 31.9958 21.2336 31.9982L20.3385 31.9994H18.7677C17.8921 32.0025 17.0165 31.9933 16.1411 31.9718L15.9083 31.9646C15.6234 31.9538 15.3386 31.9414 15.0539 31.9274C13.7772 31.8674 12.906 31.6658 12.1405 31.3694C11.3399 31.0683 10.6147 30.5961 10.0154 29.9859C9.40455 29.3863 8.93197 28.6606 8.63065 27.8595C8.33427 27.0951 8.13268 26.224 8.07268 24.946L8.03668 24.0916L8.03068 23.8588C8.00856 22.9838 7.99856 22.1086 8.00068 21.2333V18.7661C7.99736 17.8909 8.00616 17.0156 8.02708 16.1406L8.03548 15.9078C8.04508 15.6378 8.05708 15.3726 8.07148 15.0534C8.13148 13.7755 8.33307 12.9055 8.62945 12.1399C8.93147 11.3386 9.40488 10.6129 10.0166 10.0136C10.6155 9.40342 11.3403 8.93127 12.1405 8.62998C12.906 8.33359 13.776 8.132 15.0539 8.072C15.3731 8.0576 15.6395 8.0456 15.9083 8.036L16.1411 8.0288C17.0161 8.00748 17.8913 7.99828 18.7665 8.0012L21.2336 8ZM20.0001 13.9999C18.4089 13.9999 16.8828 14.632 15.7577 15.7572C14.6325 16.8824 14.0004 18.4084 14.0004 19.9997C14.0004 21.591 14.6325 23.1171 15.7577 24.2422C16.8828 25.3674 18.4089 25.9996 20.0001 25.9996C21.5913 25.9996 23.1173 25.3674 24.2425 24.2422C25.3677 23.1171 25.9998 21.591 25.9998 19.9997C25.9998 18.4084 25.3677 16.8824 24.2425 15.7572C23.1173 14.632 21.5913 13.9999 20.0001 13.9999ZM20.0001 16.3998C20.4728 16.3997 20.9409 16.4928 21.3777 16.6736C21.8145 16.8544 22.2114 17.1195 22.5457 17.4538C22.88 17.788 23.1453 18.1848 23.3262 18.6215C23.5072 19.0583 23.6004 19.5264 23.6005 19.9991C23.6006 20.4719 23.5075 20.94 23.3267 21.3768C23.1459 21.8136 22.8808 22.2105 22.5466 22.5448C22.2123 22.8791 21.8155 23.1444 21.3788 23.3254C20.9421 23.5064 20.474 23.5995 20.0013 23.5996C19.0465 23.5996 18.1309 23.2203 17.4558 22.5452C16.7807 21.8701 16.4015 20.9545 16.4015 19.9997C16.4015 19.045 16.7807 18.1293 17.4558 17.4542C18.1309 16.7791 19.0465 16.3998 20.0013 16.3998M26.301 12.1999C25.9032 12.1999 25.5216 12.3579 25.2404 12.6392C24.9591 12.9205 24.801 13.302 24.801 13.6999C24.801 14.0977 24.9591 14.4792 25.2404 14.7605C25.5216 15.0418 25.9032 15.1998 26.301 15.1998C26.6988 15.1998 27.0803 15.0418 27.3616 14.7605C27.6429 14.4792 27.8009 14.0977 27.8009 13.6999C27.8009 13.302 27.6429 12.9205 27.3616 12.6392C27.0803 12.3579 26.6988 12.1999 26.301 12.1999Z" fill="black"/>
<defs>
<linearGradient id="paint0_linear_43_164" x1="-20.5158" y1="58.3333" x2="45.5306" y2="56.6065" gradientUnits="userSpaceOnUse">
<stop stop-color="#E64847"/>
<stop offset="1" stop-color="#EDDF3B"/>
</linearGradient>
</defs>
</svg>
