<svg width="20" height="23" viewBox="0 0 20 23" fill="none" xmlns="http://www.w3.org/2000/svg">
<path fill-rule="evenodd" clip-rule="evenodd" d="M14.6877 20.6432C13.2477 20.5902 9.16674 20.0262 4.89274 15.7532C0.619742 11.4792 0.056742 7.39923 0.002742 5.95823C-0.077258 3.76223 1.60474 1.62923 3.54774 0.796225C3.78172 0.695192 4.03794 0.656726 4.29127 0.684601C4.5446 0.712476 4.78633 0.805734 4.99274 0.955225C6.59274 2.12123 7.69674 3.88523 8.64474 5.27223C8.85333 5.57696 8.94251 5.94777 8.8953 6.31402C8.84809 6.68027 8.66778 7.01635 8.38874 7.25823L6.43774 8.70722C6.34348 8.77529 6.27713 8.87525 6.25102 8.98855C6.2249 9.10184 6.24079 9.22076 6.29574 9.32323C6.73774 10.1262 7.52374 11.3222 8.42374 12.2222C9.32374 13.1222 10.5767 13.9602 11.4357 14.4522C11.5434 14.5127 11.6702 14.5296 11.79 14.4995C11.9098 14.4693 12.0135 14.3944 12.0797 14.2902L13.3497 12.3572C13.5832 12.0471 13.9277 11.8393 14.3109 11.7774C14.6942 11.7155 15.0865 11.8043 15.4057 12.0252C16.8127 12.9992 18.4547 14.0842 19.6567 15.6232C19.8184 15.8311 19.9212 16.0786 19.9544 16.3399C19.9877 16.6011 19.9501 16.8665 19.8457 17.1082C19.0087 19.0612 16.8907 20.7242 14.6877 20.6432Z" fill="white"/>
</svg>
