<svg width="60" height="60" viewBox="0 0 60 60" fill="none" xmlns="http://www.w3.org/2000/svg">
<rect x="0.5" y="0.5" width="59" height="59" rx="7.5" stroke="white"/>
<path d="M31.8504 12C33.8753 12.0054 34.9031 12.0162 35.7904 12.0414L36.1396 12.054C36.5428 12.0684 36.9406 12.0864 37.4211 12.108C39.3362 12.198 40.643 12.5004 41.7895 12.945C42.9775 13.4022 43.9782 14.0214 44.979 15.0203C45.8946 15.9198 46.6028 17.0083 47.0543 18.2098C47.4988 19.3564 47.8012 20.6632 47.8912 22.5801C47.9128 23.0589 47.9308 23.4567 47.9452 23.8617L47.956 24.2109C47.983 25.0965 47.9938 26.1243 47.9974 28.1492L47.9992 29.492V31.8499C48.0036 33.1628 47.9898 34.4757 47.9578 35.7882L47.947 36.1374C47.9326 36.5424 47.9146 36.9402 47.893 37.419C47.803 39.3359 47.497 40.6409 47.0543 41.7893C46.6028 42.9908 45.8946 44.0793 44.979 44.9788C44.0795 45.8944 42.991 46.6027 41.7895 47.0542C40.643 47.4987 39.3362 47.8011 37.4211 47.8911L36.1396 47.9451L35.7904 47.9559C34.9031 47.9811 33.8753 47.9937 31.8504 47.9973L30.5077 47.9991H28.1516C26.8381 48.0038 25.5247 47.99 24.2116 47.9577L23.8624 47.9469C23.4351 47.9307 23.008 47.9121 22.5809 47.8911C20.6658 47.8011 19.3591 47.4987 18.2107 47.0542C17.0099 46.6025 15.922 45.8942 15.0231 44.9788C14.1068 44.0795 13.3979 42.991 12.946 41.7893C12.5014 40.6427 12.199 39.3359 12.109 37.419L12.055 36.1374L12.046 35.7882C12.0128 34.4757 11.9978 33.1628 12.001 31.8499V28.1492C11.996 26.8363 12.0092 25.5234 12.0406 24.2109L12.0532 23.8617C12.0676 23.4567 12.0856 23.0589 12.1072 22.5801C12.1972 20.6632 12.4996 19.3582 12.9442 18.2098C13.3972 17.0078 14.1073 15.9193 15.0249 15.0203C15.9233 14.1051 17.0105 13.3969 18.2107 12.945C19.3591 12.5004 20.664 12.198 22.5809 12.108C23.0597 12.0864 23.4592 12.0684 23.8624 12.054L24.2116 12.0432C25.5241 12.0112 26.8369 11.9974 28.1498 12.0018L31.8504 12ZM30.0001 20.9998C27.6133 20.9998 25.3242 21.948 23.6365 23.6358C21.9487 25.3235 21.0006 27.6127 21.0006 29.9996C21.0006 32.3865 21.9487 34.6756 23.6365 36.3634C25.3242 38.0512 27.6133 38.9993 30.0001 38.9993C32.3869 38.9993 34.676 38.0512 36.3638 36.3634C38.0515 34.6756 38.9997 32.3865 38.9997 29.9996C38.9997 27.6127 38.0515 25.3235 36.3638 23.6358C34.676 21.948 32.3869 20.9998 30.0001 20.9998ZM30.0001 24.5997C30.7092 24.5996 31.4114 24.7391 32.0666 25.0104C32.7217 25.2817 33.3171 25.6793 33.8186 26.1806C34.3201 26.682 34.7179 27.2772 34.9894 27.9323C35.2608 28.5874 35.4006 29.2895 35.4007 29.9987C35.4009 30.7078 35.2613 31.41 34.9901 32.0652C34.7188 32.7204 34.3212 33.3157 33.8198 33.8172C33.3185 34.3187 32.7233 34.7166 32.0682 34.988C31.4132 35.2595 30.711 35.3993 30.0019 35.3994C28.5698 35.3994 27.1964 34.8305 26.1837 33.8179C25.1711 32.8052 24.6022 31.4317 24.6022 29.9996C24.6022 28.5674 25.1711 27.194 26.1837 26.1813C27.1964 25.1686 28.5698 24.5997 30.0019 24.5997M39.4514 18.2998C38.8547 18.2998 38.2825 18.5369 37.8605 18.9588C37.4386 19.3808 37.2016 19.9531 37.2016 20.5498C37.2016 21.1465 37.4386 21.7188 37.8605 22.1407C38.2825 22.5627 38.8547 22.7997 39.4514 22.7997C40.0481 22.7997 40.6204 22.5627 41.0423 22.1407C41.4643 21.7188 41.7013 21.1465 41.7013 20.5498C41.7013 19.9531 41.4643 19.3808 41.0423 18.9588C40.6204 18.5369 40.0481 18.2998 39.4514 18.2998Z" fill="white"/>
</svg>
