<svg width="142" height="87" viewBox="0 0 142 87" fill="none" xmlns="http://www.w3.org/2000/svg">
<g clip-path="url(#clip0_43_301)">
<mask id="mask0_43_301" style="mask-type:luminance" maskUnits="userSpaceOnUse" x="18" y="59" width="33" height="28">
<path d="M44.7908 59.5587V70.6444C44.7908 76.2474 40.2311 80.8039 34.6241 80.8039C29.0171 80.8039 24.4481 76.2381 24.4481 70.6444H18.248C18.248 79.6741 25.5788 86.9997 34.6241 86.9997C43.6694 86.9997 50.9909 79.6741 50.9909 70.6444V59.5587H44.7908Z" fill="white"/>
</mask>
<g mask="url(#mask0_43_301)">
<path d="M77.4966 0H18.248V87H77.4966V0Z" fill="url(#paint0_linear_43_301)"/>
</g>
<path d="M77.5342 20.7084V55.1973H71.3341V53.1876C69.7308 54.4378 67.2748 55.1973 64.6428 55.1973C58.3963 55.1973 53.0859 50.1592 53.0859 43.5652C53.0859 36.9712 58.3963 31.7941 64.6428 31.7941C67.2748 31.7941 69.7308 32.5999 71.3341 33.8409V20.7084H77.5342ZM65.1803 49.585C68.7484 49.585 71.4268 46.8622 71.4268 43.4355C71.4268 40.0088 68.6186 37.286 65.1803 37.286C61.742 37.286 59.1563 40.0459 59.1563 43.4355C59.1563 46.8251 61.7883 49.585 65.1803 49.585Z" fill="#232323"/>
<path d="M44.7911 53.1961C43.1878 54.4464 40.7318 55.2058 38.0998 55.2058C31.8534 55.2058 26.543 50.1677 26.543 43.5737C26.543 36.9797 31.8534 31.8027 38.0998 31.8027C40.7318 31.8027 43.1878 32.6084 44.7911 33.8494V31.8027H50.9912V55.2058H44.7911V53.1961ZM32.6133 43.5644C32.6133 47.0003 35.2454 49.7139 38.6373 49.7139C42.2054 49.7139 44.8838 46.9911 44.8838 43.5644C44.8838 40.1378 42.0757 37.415 38.6373 37.415C35.199 37.415 32.6133 40.1748 32.6133 43.5644Z" fill="#232323"/>
<path d="M97.877 53.1961C96.2737 54.4464 93.8178 55.2058 91.1858 55.2058C84.9393 55.2058 79.6289 50.1677 79.6289 43.5737C79.6289 36.9797 84.9393 31.8027 91.1858 31.8027C93.8178 31.8027 96.2737 32.6084 97.877 33.8494V31.8027H104.077V55.2058H97.877V53.1961ZM85.6993 43.5644C85.6993 47.0003 88.3313 49.7139 91.7233 49.7139C95.2914 49.7139 97.9697 46.9911 97.9697 43.5644C97.9697 40.1378 95.1616 37.415 91.7233 37.415C88.285 37.415 85.6993 40.1748 85.6993 43.5644Z" fill="#232323"/>
<path d="M112.686 34.2943C113.845 33.1367 115.939 31.6178 119.025 31.6178C121.657 31.6178 123.928 32.5532 125.587 34.7389C127.375 32.8218 129.739 31.6178 133.084 31.6178C138.663 31.6178 142.009 35.2297 142.009 40.7124V55.1969H135.855V41.7311C135.855 39.0546 134.474 37.3135 132.019 37.3135C129.21 37.3135 127.375 39.1843 127.375 42.259V55.1877H121.268V41.7218C121.268 39.0453 119.887 37.3042 117.431 37.3042C114.623 37.3042 112.788 39.175 112.788 42.2497V55.1784H106.588V31.7753H112.695V34.2758L112.686 34.2943Z" fill="#232323"/>
<path d="M18.2481 66.2831V53.1507C16.6448 54.4009 14.1889 55.1974 11.5568 55.1974C5.3104 55.1974 0 50.0296 0 43.4264C0 36.8231 5.3104 31.7943 11.5568 31.7943C14.1889 31.7943 16.6448 32.5537 18.2481 33.804V32.0165H24.4482V66.2831H18.2481ZM6.07036 43.5653C6.07036 46.9549 8.70239 49.7148 12.0944 49.7148C15.4864 49.7148 18.3408 46.9549 18.3408 43.5653C18.3408 40.1757 15.6624 37.4158 12.0944 37.4158C8.5263 37.4158 6.07036 40.1386 6.07036 43.5653Z" fill="#232323"/>
<path d="M64.3367 77.2109C61.6583 76.7386 60.0272 76.3311 60.0272 74.6178C60.0272 73.0341 61.334 72.1358 63.6231 72.1358C66.4219 72.1358 67.5619 73.6361 67.6916 75.0345L67.7194 75.3587H69.99L69.9622 74.9697C69.7212 71.8765 67.3024 69.9594 63.6509 69.9594C59.9994 69.9594 57.7195 71.8116 57.7195 74.6826C57.7195 78.2945 60.9169 78.8502 63.7343 79.3317C66.4868 79.8041 68.1643 80.2208 68.1643 82.0545C68.1643 83.8883 66.7185 84.7959 64.0957 84.7959C62.1495 84.7959 59.7585 84.2309 59.4248 81.5359L59.3877 81.221H57.0801L57.1264 81.6193C57.5249 85.0922 59.9901 87 64.0679 87C68.1457 87 70.4441 85.0367 70.4441 81.9897C70.4441 78.2852 67.2004 77.711 64.3367 77.2109Z" fill="#232323"/>
<path d="M85.4033 81.6378C84.1058 83.7679 82.3357 84.7218 79.6666 84.7218C76.1356 84.7218 73.5684 82.0823 73.5684 78.4427C73.5684 74.803 76.117 72.1913 79.6295 72.1913C82.3079 72.1913 84.0873 73.1545 85.394 75.3031L85.5887 75.6273L87.3866 74.3955L87.2105 74.1084C85.5516 71.3115 83.0678 69.9501 79.6202 69.9501C74.8659 69.9501 71.2793 73.5898 71.2793 78.4056C71.2793 83.2215 74.8659 86.9537 79.6202 86.9537C82.9566 86.9537 85.5145 85.5646 87.2105 82.8325L87.3959 82.5361L85.5979 81.3044L85.4033 81.6285V81.6378Z" fill="#232323"/>
<path d="M95.6517 69.9594C93.2143 69.9594 91.6759 70.8948 90.7306 71.9228V64.3563H88.46V86.963H90.7306V77.3313C90.7306 74.0899 92.51 72.1543 95.4942 72.1543C98.2837 72.1543 99.8778 73.8769 99.8778 76.8868V86.9537H102.148V76.6923C102.148 72.6544 99.5349 69.9409 95.6517 69.9409V69.9594Z" fill="#232323"/>
<path d="M112.009 69.9596C107.227 69.9596 103.482 73.6918 103.482 78.4521C103.482 83.2124 107.227 86.9724 112.009 86.9724C116.791 86.9724 120.507 83.2309 120.507 78.4521C120.507 73.6733 116.772 69.9596 112.009 69.9596ZM118.227 78.4799C118.227 82.064 115.549 84.759 112.009 84.759C108.468 84.759 105.753 82.0547 105.753 78.4799C105.753 74.9051 108.441 72.1637 112.009 72.1637C115.577 72.1637 118.227 74.8773 118.227 78.4799Z" fill="#232323"/>
<path d="M129.897 69.9596C125.115 69.9596 121.371 73.6918 121.371 78.4521C121.371 83.2124 125.115 86.9724 129.897 86.9724C134.68 86.9724 138.396 83.2309 138.396 78.4521C138.396 73.6733 134.661 69.9596 129.897 69.9596ZM136.116 78.4799C136.116 82.064 133.438 84.759 129.897 84.759C126.357 84.759 123.642 82.0547 123.642 78.4799C123.642 74.9051 126.329 72.1637 129.897 72.1637C133.465 72.1637 136.116 74.8773 136.116 78.4799Z" fill="#232323"/>
<path d="M141.991 64.3563H139.721V86.963H141.991V64.3563Z" fill="#232323"/>
<mask id="mask1_43_301" style="mask-type:luminance" maskUnits="userSpaceOnUse" x="44" y="0" width="34" height="28">
<path d="M50.9911 27.441V16.3553C50.9911 10.7523 55.5508 6.19576 61.1578 6.19576C66.7648 6.19576 71.3338 10.7615 71.3338 16.3553H77.5339C77.5339 7.32563 70.2031 0 61.1578 0C52.1125 0 44.791 7.32563 44.791 16.3553V27.441H50.9911Z" fill="white"/>
</mask>
<g mask="url(#mask1_43_301)">
<path d="M77.4966 0H18.248V87H77.4966V0Z" fill="url(#paint1_linear_43_301)"/>
</g>
</g>
<defs>
<linearGradient id="paint0_linear_43_301" x1="18.248" y1="43.5" x2="77.4873" y2="43.5" gradientUnits="userSpaceOnUse">
<stop stop-color="#FF3D36"/>
<stop offset="1" stop-color="#EAE43D"/>
</linearGradient>
<linearGradient id="paint1_linear_43_301" x1="18.248" y1="43.5" x2="77.4873" y2="43.5" gradientUnits="userSpaceOnUse">
<stop stop-color="#FF3D36"/>
<stop offset="1" stop-color="#EAE43D"/>
</linearGradient>
<clipPath id="clip0_43_301">
<rect width="142" height="87" fill="white"/>
</clipPath>
</defs>
</svg>
