<svg width="132" height="82" viewBox="0 0 132 82" fill="none" xmlns="http://www.w3.org/2000/svg">
<g clip-path="url(#clip0_43_254)">
<mask id="mask0_43_254" style="mask-type:luminance" maskUnits="userSpaceOnUse" x="16" y="55" width="32" height="27">
<path d="M41.6345 55.9512V66.2723C41.6345 71.489 37.3959 75.7312 32.1838 75.7312C26.9716 75.7312 22.7244 71.4803 22.7244 66.2723H16.9609C16.9609 74.6793 23.7755 81.4997 32.1838 81.4997C40.5921 81.4997 47.398 74.6793 47.398 66.2723V55.9512H41.6345Z" fill="white"/>
</mask>
<g mask="url(#mask0_43_254)">
<path d="M72.037 0.5H16.9609V81.5H72.037V0.5Z" fill="url(#paint0_linear_43_254)"/>
</g>
<path d="M72.0742 19.7803V51.8906H66.3107V50.0195C64.8203 51.1835 62.5373 51.8906 60.0906 51.8906C54.2841 51.8906 49.3477 47.1999 49.3477 41.0607C49.3477 34.9214 54.2841 30.1014 60.0906 30.1014C62.5373 30.1014 64.8203 30.8516 66.3107 32.007V19.7803H72.0742ZM60.5903 46.6653C63.9071 46.6653 66.3969 44.1303 66.3969 40.9399C66.3969 37.7496 63.7865 35.2146 60.5903 35.2146C57.3941 35.2146 54.9905 37.7841 54.9905 40.9399C54.9905 44.0958 57.4372 46.6653 60.5903 46.6653Z" fill="white"/>
<path d="M41.6349 50.0274C40.1445 51.1914 37.8615 51.8985 35.4149 51.8985C29.6083 51.8985 24.6719 47.2078 24.6719 41.0686C24.6719 34.9294 29.6083 30.1094 35.4149 30.1094C37.8615 30.1094 40.1445 30.8595 41.6349 32.015V30.1094H47.3984V51.8985H41.6349V50.0274ZM30.3147 41.06C30.3147 44.2589 32.7614 46.7853 35.9145 46.7853C39.2313 46.7853 41.7211 44.2503 41.7211 41.06C41.7211 37.8696 39.1107 35.3346 35.9145 35.3346C32.7183 35.3346 30.3147 37.9041 30.3147 41.06Z" fill="white"/>
<path d="M90.9865 50.0274C89.4961 51.1914 87.2131 51.8985 84.7664 51.8985C78.9599 51.8985 74.0234 47.2078 74.0234 41.0686C74.0234 34.9294 78.9599 30.1094 84.7664 30.1094C87.2131 30.1094 89.4961 30.8595 90.9865 32.015V30.1094H96.75V51.8985H90.9865V50.0274ZM79.6663 41.06C79.6663 44.2589 82.113 46.7853 85.2661 46.7853C88.5829 46.7853 91.0726 44.2503 91.0726 41.06C91.0726 37.8696 88.4623 35.3346 85.2661 35.3346C82.0699 35.3346 79.6663 37.9041 79.6663 41.06Z" fill="white"/>
<path d="M104.751 32.4292C105.828 31.3514 107.775 29.9373 110.643 29.9373C113.09 29.9373 115.201 30.8082 116.743 32.8431C118.406 31.0582 120.602 29.9373 123.712 29.9373C128.899 29.9373 132.009 33.3001 132.009 38.4046V51.8902H126.288V39.3531C126.288 36.8612 125.005 35.2402 122.722 35.2402C120.111 35.2402 118.406 36.9819 118.406 39.8446V51.8816H112.728V39.3445C112.728 36.8526 111.445 35.2315 109.162 35.2315C106.551 35.2315 104.846 36.9733 104.846 39.836V51.873H99.082V30.0839H104.759V32.412L104.751 32.4292Z" fill="white"/>
<path d="M16.9631 62.2118V49.9851C15.4727 51.1491 13.1897 51.8907 10.743 51.8907C4.93643 51.8907 0 47.0793 0 40.9315C0 34.7836 4.93643 30.1016 10.743 30.1016C13.1897 30.1016 15.4727 30.8086 16.9631 31.9726V30.3085H22.7265V62.2118H16.9631ZM5.64287 41.0608C5.64287 44.2166 8.08954 46.7861 11.2427 46.7861C14.3958 46.7861 17.0492 44.2166 17.0492 41.0608C17.0492 37.9049 14.5595 35.3354 11.2427 35.3354C7.92586 35.3354 5.64287 37.8705 5.64287 41.0608Z" fill="white"/>
<path d="M59.8081 72.386C57.3183 71.9463 55.8021 71.5669 55.8021 69.9717C55.8021 68.4973 57.0168 67.6609 59.1447 67.6609C61.7465 67.6609 62.8061 69.0577 62.9267 70.3597L62.9526 70.6615H65.0633L65.0374 70.2994C64.8134 67.4195 62.5649 65.6346 59.1706 65.6346C55.7762 65.6346 53.6569 67.3591 53.6569 70.0321C53.6569 73.3949 56.6291 73.9122 59.2481 74.3606C61.8068 74.8003 63.3661 75.1884 63.3661 76.8956C63.3661 78.6029 62.0222 79.4479 59.5841 79.4479C57.7749 79.4479 55.5523 78.9219 55.2421 76.4128L55.2077 76.1196H53.0625L53.1056 76.4904C53.476 79.7238 55.7676 81.5 59.5583 81.5C63.3489 81.5 65.4854 79.6721 65.4854 76.8353C65.4854 73.3862 62.4701 72.8517 59.8081 72.386Z" fill="white"/>
<path d="M79.3911 76.5076C78.185 78.4908 76.5395 79.3789 74.0583 79.3789C70.776 79.3789 68.3896 76.9215 68.3896 73.5328C68.3896 70.1442 70.7588 67.7126 74.0239 67.7126C76.5136 67.7126 78.1677 68.6094 79.3825 70.6098L79.5634 70.9116L81.2347 69.7648L81.071 69.4975C79.5289 66.8935 77.2201 65.626 74.0153 65.626C69.5957 65.626 66.2617 69.0146 66.2617 73.4983C66.2617 77.9821 69.5957 81.4569 74.0153 81.4569C77.1167 81.4569 79.4945 80.1636 81.071 77.6199L81.2433 77.344L79.572 76.1972L79.3911 76.499V76.5076Z" fill="white"/>
<path d="M88.9197 65.6346C86.6539 65.6346 85.2238 66.5055 84.3451 67.4626V60.418H82.2344V81.4656H84.3451V72.4981C84.3451 69.4802 85.9992 67.6781 88.7732 67.6781C91.3663 67.6781 92.8481 69.2819 92.8481 72.0842V81.4569H94.9588V71.9032C94.9588 68.1438 92.5294 65.6174 88.9197 65.6174V65.6346Z" fill="white"/>
<path d="M104.121 65.6348C99.6758 65.6348 96.1953 69.1096 96.1953 73.5416C96.1953 77.9736 99.6758 81.4743 104.121 81.4743C108.567 81.4743 112.021 77.9908 112.021 73.5416C112.021 69.0924 108.549 65.6348 104.121 65.6348ZM109.902 73.5675C109.902 76.9044 107.412 79.4136 104.121 79.4136C100.83 79.4136 98.306 76.8958 98.306 73.5675C98.306 70.2392 100.804 67.6869 104.121 67.6869C107.438 67.6869 109.902 70.2133 109.902 73.5675Z" fill="white"/>
<path d="M120.754 65.6348C116.309 65.6348 112.828 69.1096 112.828 73.5416C112.828 77.9736 116.309 81.4743 120.754 81.4743C125.199 81.4743 128.654 77.9908 128.654 73.5416C128.654 69.0924 125.182 65.6348 120.754 65.6348ZM126.535 73.5675C126.535 76.9044 124.045 79.4136 120.754 79.4136C117.463 79.4136 114.939 76.8958 114.939 73.5675C114.939 70.2392 117.437 67.6869 120.754 67.6869C124.071 67.6869 126.535 70.2133 126.535 73.5675Z" fill="white"/>
<path d="M131.994 60.418H129.883V81.4656H131.994V60.418Z" fill="white"/>
<mask id="mask1_43_254" style="mask-type:luminance" maskUnits="userSpaceOnUse" x="41" y="0" width="32" height="27">
<path d="M47.4002 26.0485V15.7274C47.4002 10.5108 51.6388 6.26847 56.8509 6.26847C62.063 6.26847 66.3103 10.5194 66.3103 15.7274H72.0737C72.0737 7.32042 65.2592 0.5 56.8509 0.5C48.4426 0.5 41.6367 7.32042 41.6367 15.7274V26.0485H47.4002Z" fill="white"/>
</mask>
<g mask="url(#mask1_43_254)">
<path d="M72.037 0.5H16.9609V81.5H72.037V0.5Z" fill="url(#paint1_linear_43_254)"/>
</g>
</g>
<defs>
<linearGradient id="paint0_linear_43_254" x1="16.9609" y1="41" x2="72.0284" y2="41" gradientUnits="userSpaceOnUse">
<stop stop-color="#FF3D36"/>
<stop offset="1" stop-color="#EAE43D"/>
</linearGradient>
<linearGradient id="paint1_linear_43_254" x1="16.9609" y1="41" x2="72.0284" y2="41" gradientUnits="userSpaceOnUse">
<stop stop-color="#FF3D36"/>
<stop offset="1" stop-color="#EAE43D"/>
</linearGradient>
<clipPath id="clip0_43_254">
<rect width="132" height="81" fill="white" transform="translate(0 0.5)"/>
</clipPath>
</defs>
</svg>
