<svg width="53" height="52" viewBox="0 0 53 52" fill="none" xmlns="http://www.w3.org/2000/svg">
<path d="M48.065 23.4245C47.3413 27.1337 45.7537 30.7051 43.4939 33.7822C43.2361 34.1333 42.6885 34.0551 42.5379 33.6464C42.2507 32.8664 42.4304 33.2194 36.3017 24.4766C36.0798 24.16 36.2461 23.7229 36.6207 23.6267C37.7099 23.3468 38.6675 22.8302 39.4667 22.0805C39.7628 21.8036 39.7775 21.3398 39.5006 21.0436C39.2238 20.7484 38.7599 20.7338 38.4638 21.0106C37.5904 21.8296 36.4852 22.2896 35.1633 22.3892C34.9709 22.4037 34.7853 22.3136 34.6746 22.1557L32.438 18.9644C31.9325 18.2405 30.9262 18.8237 30.9491 19.6337C30.9563 19.8857 30.8142 20.1294 30.5797 20.2635C23.5362 24.2914 24.0367 24.0108 23.8956 24.0799C22.844 24.5945 21.6167 24.6752 20.4981 24.3082C17.3687 23.2717 16.4274 19.4475 18.5253 17.0081C18.7743 16.7192 18.2199 17.2252 25.4156 10.9474C26.2055 10.2583 26.8127 9.6976 27.9138 8.99931C36.9117 3.22301 51.1729 7.47089 48.065 23.4245Z" fill="url(#paint0_linear_113_272)"/>
<path d="M39.6221 38.0903C39.3581 38.2341 39.0316 38.197 38.8021 38.0028L26.9728 28C26.661 27.7371 26.2178 27.7929 25.9671 28.055C25.6912 28.3434 25.6965 28.8445 26.0249 29.1203C28.2855 31.0186 21.7733 25.5247 36.5483 38.0183C36.7707 38.2063 36.8632 38.5092 36.7788 38.7879C36.5084 39.6801 35.874 40.4231 35.0726 40.8419C34.8176 40.9752 34.5075 40.942 34.2822 40.763C31.0037 38.1568 23.0625 31.8256 22.9007 31.7368C22.6261 31.5856 22.2675 31.6274 22.0334 31.8615C21.96 31.9344 21.9028 32.0222 21.8656 32.1188C21.8285 32.2155 21.8123 32.3189 21.818 32.4223C21.8237 32.5257 21.8512 32.6268 21.8988 32.7188C21.9464 32.8107 22.0129 32.8916 22.0939 32.9561C32.8561 41.5068 32.3812 41.1203 32.3772 41.1363C32.2265 42.1047 31.6046 42.9983 30.7693 43.4999C30.6385 43.5785 30.4866 43.6146 30.3344 43.6032C30.1822 43.5917 30.0373 43.5333 29.9198 43.436L19.8304 35.0562C19.687 34.9367 19.5032 34.8769 19.317 34.8893C19.289 34.8893 19.2159 34.8999 19.1822 34.9104C18.6138 35.0302 18.4265 35.796 18.8925 36.1847L27.1434 43.0365C27.4026 43.2517 27.4834 43.6166 27.3361 43.9195C26.6731 45.284 24.9551 46.0375 23.3443 44.9113C18.7082 41.6691 7.86295 36.0715 5.04127 23.4436C1.63287 8.1878 15.0688 3.39738 24.4264 8.55542C24.8734 8.80175 24.9407 9.4168 24.556 9.75197C22.6451 11.4162 17.8065 15.6354 17.7219 15.72C15.4869 17.955 15.331 21.556 17.3662 23.9185C19.2217 26.0729 22.3813 26.648 24.891 25.2111C31.8757 21.2121 31.3607 21.5108 31.4841 21.4242C31.8131 21.1929 32.2686 21.2788 32.4994 21.6081C41.3301 34.2092 40.976 33.6149 41.1854 34.2017C41.739 35.7307 40.9441 37.3701 39.6221 38.0903Z" fill="url(#paint1_linear_113_272)"/>
<defs>
<linearGradient id="paint0_linear_113_272" x1="1.45113" y1="46.5921" x2="52.7898" y2="45.0721" gradientUnits="userSpaceOnUse">
<stop stop-color="#E64847"/>
<stop offset="1" stop-color="#EDDF3B"/>
</linearGradient>
<linearGradient id="paint1_linear_113_272" x1="-14.4072" y1="63.287" x2="46.4649" y2="61.7787" gradientUnits="userSpaceOnUse">
<stop stop-color="#E64847"/>
<stop offset="1" stop-color="#EDDF3B"/>
</linearGradient>
</defs>
</svg>
