<svg width="44" height="44" viewBox="0 0 44 44" fill="none" xmlns="http://www.w3.org/2000/svg">
<path d="M22 5.15625C22.7124 5.15625 23.2891 4.57961 23.2891 3.86719V1.28906C23.2891 0.576641 22.7124 0 22 0C21.2876 0 20.7109 0.576641 20.7109 1.28906V3.86719C20.7109 4.57961 21.2876 5.15625 22 5.15625ZM28.0676 7.35668L30.6457 4.77855C31.1493 4.27505 31.1493 3.45933 30.6457 2.95582C30.1421 2.45231 29.3265 2.45223 28.823 2.95582L26.2449 5.53395C25.7413 6.03745 25.7413 6.85317 26.2449 7.35668C26.7485 7.86019 27.5641 7.86027 28.0676 7.35668ZM15.9324 7.35668C16.4359 7.86027 17.2516 7.86027 17.7551 7.35668C18.2586 6.85309 18.2587 6.03745 17.7551 5.53395L15.177 2.95582C14.6735 2.45223 13.8578 2.45223 13.3543 2.95582C12.8507 3.45941 12.8507 4.27505 13.3543 4.77855L15.9324 7.35668ZM11.6016 18.2188C11.6016 15.3751 9.28898 13.0625 6.44531 13.0625C3.60164 13.0625 1.28906 15.3751 1.28906 18.2188C1.28906 21.0624 3.60164 23.375 6.44531 23.375C9.28898 23.375 11.6016 21.0624 11.6016 18.2188Z" fill="url(#paint0_linear_111_233)"/>
<path d="M22 10.3984C19.8676 10.3984 18.1328 12.1333 18.1328 14.2656C18.1328 19.2405 13.9984 23.375 9.02344 23.375H6.44531C2.89162 23.375 0 26.2666 0 29.8203V42.7109C0 43.4234 0.576641 44 1.28906 44H11.6016C12.3129 44 12.8734 43.4234 12.8734 42.7123L12.8809 30.6575C20.4088 28.8838 25.8672 22.1057 25.8672 14.2656C25.8672 12.1333 24.1323 10.3984 22 10.3984ZM42.7109 18.2188C42.7109 15.3751 40.3984 13.0625 37.5547 13.0625C34.711 13.0625 32.3984 15.3751 32.3984 18.2188C32.3984 21.0624 34.711 23.375 37.5547 23.375C40.3984 23.375 42.7109 21.0624 42.7109 18.2188Z" fill="url(#paint1_linear_111_233)"/>
<path d="M37.5551 23.375H34.9769C32.0128 23.375 29.3145 21.8332 27.6685 19.6189C26.9143 22.2803 25.6004 24.6956 23.8457 26.7637C25.9012 28.5782 28.441 30.0184 31.1191 30.6562L31.1268 42.7123C31.1269 43.4232 31.6875 44 32.3988 44H42.7113C43.4237 44 44.0004 43.4233 44.0004 42.7109V29.8203C44.0004 26.2666 41.1087 23.375 37.5551 23.375Z" fill="url(#paint2_linear_111_233)"/>
<defs>
<linearGradient id="paint0_linear_111_233" x1="-13.9615" y1="34.0885" x2="35.1139" y2="32.4564" gradientUnits="userSpaceOnUse">
<stop stop-color="#E64847"/>
<stop offset="1" stop-color="#EDDF3B"/>
</linearGradient>
<linearGradient id="paint1_linear_111_233" x1="-21.9062" y1="59.4007" x2="48.5867" y2="57.058" gradientUnits="userSpaceOnUse">
<stop stop-color="#E64847"/>
<stop offset="1" stop-color="#EDDF3B"/>
</linearGradient>
<linearGradient id="paint2_linear_111_233" x1="13.5085" y1="55.1746" x2="46.7942" y2="54.4552" gradientUnits="userSpaceOnUse">
<stop stop-color="#E64847"/>
<stop offset="1" stop-color="#EDDF3B"/>
</linearGradient>
</defs>
</svg>
