<svg width="44" height="44" viewBox="0 0 44 44" fill="none" xmlns="http://www.w3.org/2000/svg">
<path d="M11.5409 27.1562C12.8313 29.7313 15.0247 31.7589 17.7327 32.8023C16.9308 31.2489 16.3409 29.2851 15.9804 27.1562H11.5409ZM11.5409 16.8437H15.9804C16.3409 14.7147 16.9308 12.7509 17.7327 11.1976C15.0247 12.2409 12.8312 14.2685 11.5409 16.8437ZM22.0517 10.4158C22.0242 10.4154 21.999 10.4077 21.9718 10.4077C20.8271 10.4447 19.3309 12.8435 18.591 16.8437H25.408C24.6733 12.8708 23.1934 10.4836 22.0517 10.4158ZM21.9719 33.592C21.999 33.5918 22.0243 33.5843 22.0518 33.584C23.1931 33.5161 24.6732 31.1294 25.408 27.1562H18.5911C19.331 31.1563 20.8272 33.5551 21.9719 33.592ZM15.5544 21.9999C15.5544 21.1423 15.5897 20.2777 15.6595 19.4218H10.5889C10.3985 20.254 10.2773 21.111 10.2773 21.9999C10.2773 22.8888 10.3989 23.7458 10.5889 24.578H15.6595C15.5896 23.7204 15.5546 22.8604 15.5544 21.9999ZM26.3167 11.2887C27.0939 12.8268 27.6659 14.7577 28.0191 16.8437H32.2169C30.9714 14.3582 28.8969 12.3615 26.3167 11.2887ZM28.445 21.9999C28.445 22.8576 28.4098 23.7221 28.3399 24.578H33.1689C33.3593 23.7458 33.4805 22.8888 33.4805 21.9999C33.4805 21.111 33.3593 20.254 33.1689 19.4218H28.3399C28.4098 20.2777 28.445 21.1423 28.445 21.9999Z" fill="url(#paint0_linear_112_256)"/>
<path d="M44 22C44 9.91633 34.0837 0 22 0C9.91633 0 0 9.91633 0 22C0 34.0837 9.91633 44 22 44C25.7402 44 29.3827 42.9829 32.6231 41.1734C33.1244 40.8935 33.7171 40.8153 34.2655 40.9851L40.515 42.9206C42.0235 43.3879 43.453 42.0045 43.0355 40.4814L41.1971 33.7751C41.0557 33.259 41.1306 32.7097 41.382 32.2373C43.0534 29.0956 44 25.585 44 22ZM22.1034 36.1683C22.0685 36.1696 22.0356 36.1797 22 36.1797C21.9869 36.1797 21.9751 36.1756 21.9621 36.1754C21.9342 36.1756 21.907 36.1797 21.8792 36.1797C14.0606 36.1797 7.69948 29.8186 7.69948 22C7.69948 14.1814 14.0606 7.82031 21.8792 7.82031C21.907 7.82031 21.9342 7.82435 21.9621 7.82461C21.9752 7.82435 21.9869 7.82031 22 7.82031C22.0356 7.82031 22.0685 7.83037 22.1034 7.83174C29.8183 7.95326 36.0588 14.2569 36.0588 22C36.0588 29.7431 29.8183 36.0467 22.1034 36.1683Z" fill="url(#paint1_linear_112_256)"/>
<path d="M18.2399 19.4219C18.1717 20.2376 18.1328 21.0966 18.1328 22C18.1328 22.9034 18.1717 23.7624 18.2399 24.5781H25.7601C25.8283 23.7624 25.8672 22.9034 25.8672 22C25.8672 21.0966 25.8283 20.2376 25.7601 19.4219H18.2399ZM26.317 32.7113C28.8972 31.6384 30.9717 29.6417 32.2172 27.1562H28.0193C27.6661 29.2422 27.0941 31.1731 26.317 32.7113Z" fill="url(#paint2_linear_112_256)"/>
<defs>
<linearGradient id="paint0_linear_112_256" x1="-1.6234" y1="44.2182" x2="36.6886" y2="43.2157" gradientUnits="userSpaceOnUse">
<stop stop-color="#E64847"/>
<stop offset="1" stop-color="#EDDF3B"/>
</linearGradient>
<linearGradient id="paint1_linear_112_256" x1="-22.5673" y1="64.1667" x2="50.0836" y2="62.2672" gradientUnits="userSpaceOnUse">
<stop stop-color="#E64847"/>
<stop offset="1" stop-color="#EDDF3B"/>
</linearGradient>
<linearGradient id="paint2_linear_112_256" x1="10.909" y1="38.8022" x2="34.1626" y2="38.1579" gradientUnits="userSpaceOnUse">
<stop stop-color="#E64847"/>
<stop offset="1" stop-color="#EDDF3B"/>
</linearGradient>
</defs>
</svg>
