<svg width="48" height="48" viewBox="0 0 48 48" fill="none" xmlns="http://www.w3.org/2000/svg">
<g clip-path="url(#clip0_571_4151)">
<path d="M8.47591 19.2594L6.38613 17.945C5.6267 17.4669 4.9769 16.8337 4.47933 16.0869C3.98175 15.3401 3.64765 14.4965 3.49891 13.6115C2.93323 10.2359 5.1507 7.02673 8.47366 6.33411V2.89527C8.37963 2.89527 8.28457 2.90108 8.18876 2.9172L8.15782 2.92245C2.8436 3.81289 -0.755274 8.86105 0.135351 14.1753C0.363719 15.5347 0.876903 16.8306 1.64125 17.9778C2.40559 19.125 3.40382 20.0977 4.57048 20.8321L9.18504 23.7344C8.73982 22.3188 8.49326 20.8161 8.47591 19.2594ZM39.8434 2.92255L39.8112 2.91711C39.717 2.90194 39.6217 2.89463 39.5263 2.89527V6.33411C42.8487 7.02589 45.0667 10.2355 44.501 13.6115C44.3523 14.4966 44.0182 15.3401 43.5207 16.087C43.0231 16.8338 42.3733 17.467 41.6138 17.9451L39.524 19.2595C39.5069 20.8162 39.2601 22.3189 38.815 23.7345L43.4296 20.8322C45.7877 19.3491 47.4041 16.9228 47.8647 14.1754C48.7552 8.86105 45.1564 3.81308 39.8434 2.92255ZM10.7474 0.775391V19.0854C10.7474 26.3929 16.6924 32.3379 23.9999 32.3379C31.3074 32.3379 37.2524 26.393 37.2524 19.0854V0.775391H10.7474ZM31.2426 15.0259L28.97 17.2411C28.8279 17.3796 28.7216 17.5506 28.6603 17.7393C28.599 17.9281 28.5845 18.1289 28.6181 18.3245L29.1546 21.4523C29.3261 22.4522 28.2767 23.2147 27.3787 22.7426L24.5696 21.2658C24.2131 21.0783 23.7871 21.0783 23.4304 21.2658L20.6213 22.7426C19.7234 23.2146 18.6739 22.4522 18.8454 21.4523L19.3819 18.3245C19.4155 18.1289 19.401 17.9281 19.3396 17.7393C19.2783 17.5506 19.1721 17.3796 19.03 17.2411L16.7574 15.0259C16.0309 14.3177 16.4318 13.0839 17.4358 12.9381L20.5764 12.4818C20.7728 12.4532 20.9593 12.3774 21.1199 12.2607C21.2804 12.144 21.4102 11.9901 21.498 11.8121L22.9024 8.96614C23.3514 8.05639 24.6487 8.05639 25.0977 8.96614L26.5022 11.8121C26.59 11.9901 26.7198 12.144 26.8803 12.2607C27.0408 12.3773 27.2273 12.4532 27.4237 12.4818L30.5644 12.9381C31.5682 13.0841 31.9691 14.3179 31.2426 15.0259ZM28.8154 39.4183C28.5793 39.3938 28.342 39.3814 28.1045 39.3814H26.5416V34.6118H21.4582V39.3814H19.8953C19.6552 39.3814 19.418 39.3941 19.1844 39.4183C15.7509 39.7739 13.0733 42.6758 13.0733 46.2033V47.2228H34.9264V46.2033C34.9264 42.6758 32.2489 39.7739 28.8154 39.4183Z" fill="black"/>
</g>
<defs>
<clipPath id="clip0_571_4151">
<rect width="48" height="48" fill="white"/>
</clipPath>
</defs>
</svg>
