<svg width="48" height="48" viewBox="0 0 48 48" fill="none" xmlns="http://www.w3.org/2000/svg">
<g clip-path="url(#clip0_569_4132)">
<path d="M34.4657 30.656C34.1333 28.397 33.0021 26.332 31.2775 24.8356C29.5529 23.3392 27.349 22.5106 25.0657 22.5H22.9377C20.6544 22.5106 18.4506 23.3392 16.7259 24.8356C15.0013 26.332 13.8702 28.397 13.5377 30.656L12.5177 37.788C12.4851 38.0185 12.5067 38.2535 12.5806 38.4743C12.6545 38.6951 12.7788 38.8956 12.9437 39.06C13.3437 39.46 15.7977 41.5 24.0037 41.5C32.2097 41.5 34.6577 39.468 35.0637 39.06C35.2286 38.8956 35.3529 38.6951 35.4268 38.4743C35.5008 38.2535 35.5223 38.0185 35.4897 37.788L34.4657 30.656ZM15.1197 23.6C13.1868 25.3819 11.9291 27.7771 11.5597 30.38L10.8197 35.5C4.8797 35.46 3.07971 33.3 2.77971 32.86C2.66374 32.7002 2.58099 32.5187 2.53633 32.3263C2.49167 32.134 2.48602 31.9346 2.51971 31.74L2.95971 29.26C3.18895 27.9639 3.72735 26.7422 4.52925 25.6985C5.33115 24.6547 6.37291 23.8197 7.5662 23.2643C8.75949 22.7089 10.0691 22.4494 11.384 22.5078C12.699 22.5663 13.9804 22.9409 15.1197 23.6ZM45.4797 31.74C45.5134 31.9346 45.5077 32.134 45.4631 32.3263C45.4184 32.5187 45.3357 32.7002 45.2197 32.86C44.9197 33.3 43.1197 35.46 37.1797 35.5L36.4397 30.38C36.0703 27.7771 34.8126 25.3819 32.8797 23.6C34.019 22.9409 35.3005 22.5663 36.6154 22.5078C37.9303 22.4494 39.2399 22.7089 40.4332 23.2643C41.6265 23.8197 42.6683 24.6547 43.4702 25.6985C44.2721 26.7422 44.8105 27.9639 45.0397 29.26L45.4797 31.74ZM15.4597 19.2C14.9563 19.914 14.2879 20.4959 13.5114 20.8963C12.735 21.2968 11.8733 21.5038 10.9997 21.5C10.1282 21.5 9.26921 21.2929 8.49346 20.8958C7.71772 20.4987 7.04744 19.9229 6.53787 19.2159C6.02831 18.5089 5.69404 17.691 5.56261 16.8294C5.43118 15.9679 5.50636 15.0875 5.78195 14.2607C6.05754 13.434 6.52564 12.6845 7.1477 12.0742C7.76975 11.4638 8.52794 11.01 9.35978 10.7502C10.1916 10.4903 11.0733 10.4319 11.9322 10.5796C12.7911 10.7274 13.6025 11.0771 14.2997 11.6C14.0992 12.3842 13.9984 13.1906 13.9997 14C14.0012 15.8343 14.5062 17.633 15.4597 19.2ZM42.4997 16C42.5002 16.7224 42.3583 17.4379 42.0821 18.1054C41.8059 18.7729 41.4008 19.3794 40.89 19.8903C40.3791 20.4011 39.7726 20.8062 39.1051 21.0824C38.4376 21.3586 37.7221 21.5005 36.9997 21.5C36.1261 21.5038 35.2644 21.2968 34.488 20.8963C33.7115 20.4959 33.0431 19.914 32.5397 19.2C33.4932 17.633 33.9982 15.8343 33.9997 14C34.001 13.1906 33.9002 12.3842 33.6997 11.6C34.5168 10.9872 35.4885 10.614 36.5058 10.5222C37.5231 10.4305 38.5458 10.6239 39.4594 11.0807C40.373 11.5374 41.1413 12.2396 41.6783 13.1085C42.2153 13.9773 42.4997 14.9786 42.4997 16Z" fill="black"/>
<path d="M24 21.5C28.1421 21.5 31.5 18.1421 31.5 14C31.5 9.85786 28.1421 6.5 24 6.5C19.8579 6.5 16.5 9.85786 16.5 14C16.5 18.1421 19.8579 21.5 24 21.5Z" fill="black"/>
</g>
<defs>
<clipPath id="clip0_569_4132">
<rect width="48" height="48" fill="white"/>
</clipPath>
</defs>
</svg>
