<svg width="48" height="48" viewBox="0 0 48 48" fill="none" xmlns="http://www.w3.org/2000/svg">
<g clip-path="url(#clip0_571_4140)">
<g clip-path="url(#clip1_571_4140)">
<path d="M38.687 45.4629C39.1073 45.4627 39.5113 45.6258 39.8136 45.9178C41.7883 47.8247 44.6689 48.4597 47.2297 47.6649C45.5817 44.2316 45.3533 40.2982 46.6304 36.6563C48.2154 32.1251 48.6125 27.5834 46.8087 23.0283C45.224 19.0269 42.1659 15.7024 38.2956 13.8066C38.5345 15.0827 38.6544 16.3782 38.6537 17.6765C38.6539 23.2244 36.5205 28.4424 32.647 32.3693C28.773 36.2968 23.58 38.5051 18.0247 38.5877C16.9965 38.6036 15.9686 38.5439 14.9492 38.4093C18.0023 43.7609 23.7604 47.2464 30.0879 47.3402C32.8558 47.383 35.5135 46.8031 37.9886 45.6211C38.2067 45.5169 38.4453 45.4628 38.687 45.4629Z" fill="black"/>
<path d="M18.071 0.00352683C8.21601 -0.192156 0.0238158 7.78036 5.34372e-05 17.6332C-0.00576834 20.0404 0.464133 22.3744 1.39681 24.5705C1.41035 24.6025 1.42294 24.6348 1.43435 24.6676C2.71146 28.3095 2.48322 32.2428 0.835063 35.6762C3.39605 36.4706 6.27629 35.836 8.25118 33.929C8.48889 33.6994 8.79107 33.548 9.11723 33.495C9.4434 33.442 9.77797 33.4899 10.0761 33.6324C12.5509 34.8143 15.2089 35.396 17.9768 35.3516C27.7546 35.2064 35.4138 27.4427 35.4137 17.6767C35.4138 8.12384 27.6338 0.195764 18.071 0.00352683ZM8.26188 20.3167C6.84599 20.3167 5.69815 19.1707 5.69815 17.7572C5.69815 16.3437 6.84599 15.1978 8.26188 15.1978C9.67776 15.1978 10.8256 16.3437 10.8256 17.7572C10.8255 19.1707 9.67776 20.3167 8.26188 20.3167ZM17.7069 20.3167C16.2911 20.3167 15.1432 19.1707 15.1432 17.7572C15.1432 16.3437 16.2911 15.1978 17.7069 15.1978C19.1228 15.1978 20.2707 16.3437 20.2707 17.7572C20.2707 19.1707 19.1228 20.3167 17.7069 20.3167ZM27.1521 20.3167C25.7362 20.3167 24.5884 19.1707 24.5884 17.7572C24.5884 16.3437 25.7362 15.1978 27.1521 15.1978C28.568 15.1978 29.7159 16.3437 29.7159 17.7572C29.7159 19.1707 28.568 20.3167 27.1521 20.3167Z" fill="black"/>
</g>
</g>
<defs>
<clipPath id="clip0_571_4140">
<rect width="48" height="48" fill="white"/>
</clipPath>
<clipPath id="clip1_571_4140">
<rect width="48" height="48" fill="white"/>
</clipPath>
</defs>
</svg>
