<svg width="48" height="48" viewBox="0 0 48 48" fill="none" xmlns="http://www.w3.org/2000/svg">
<g clip-path="url(#clip0_569_4120)">
<g clip-path="url(#clip1_569_4120)">
<path d="M7.00688 30.7572C6.87442 31.0214 6.82846 31.3206 6.87552 31.6123C6.92259 31.9041 7.06028 32.1737 7.2691 32.3828L7.61298 32.7267C8.60654 31.5493 9.76454 30.2716 11.1689 28.8676C11.2681 28.7683 11.3703 28.7204 11.4699 28.6288L9.25763 26.4161C7.97148 28.7423 7.22148 30.3317 7.00688 30.7572ZM19.1237 36.8224C17.716 38.2301 16.4415 39.3903 15.2709 40.3846L15.7366 40.8503C15.9471 41.061 16.2192 41.1994 16.5135 41.2455C16.8078 41.2916 17.1091 41.243 17.3739 41.1067C18.1024 40.7314 19.2478 40.1923 21.6795 38.838L19.3629 36.5214C19.2714 36.6214 19.2233 36.7232 19.1237 36.8224ZM18.3741 29.6191C17.3578 28.6028 14.4999 29.5139 13.1574 30.8561C8.66617 35.3473 6.63779 38.5314 5.72701 40.4117C5.59963 40.6745 5.55728 40.9704 5.60584 41.2584C5.65439 41.5463 5.79144 41.812 5.99795 42.0185C6.20476 42.2253 6.47087 42.3625 6.75927 42.4111C7.04767 42.4597 7.34404 42.4171 7.60716 42.2895C9.44513 41.3971 12.5905 39.3782 17.1352 34.8338C18.6114 33.357 19.3398 30.5851 18.3752 29.6201L18.3741 29.6191ZM4.3892 18.7227L0.411852 22.7003C0.192962 22.9192 0.0524184 23.2042 0.0120246 23.5111C-0.0283692 23.818 0.0336446 24.1296 0.188446 24.3977C0.499321 24.9419 1.15041 25.2191 1.77001 25.0532C3.9197 24.4768 5.8112 24.2332 7.08488 24.5599C8.89688 21.3383 10.8441 18.3728 12.9062 15.679C11.7134 14.9143 7.77188 15.3402 4.3892 18.7229V18.7227ZM23.8025 47.8489C24.0665 47.9824 24.3659 48.0289 24.6579 47.982C24.95 47.9352 25.2198 47.7972 25.4288 47.5879L29.4066 43.6105C32.4861 40.5303 33.028 36.5562 32.3293 35.296C29.3249 37.5604 26.2813 39.4723 23.4417 41.073C23.6377 42.1793 23.5074 43.2527 23.044 46.3875C23.0003 46.6799 23.0501 46.9787 23.1863 47.2412C23.3225 47.5037 23.5382 47.7163 23.8025 47.8489ZM27.9186 14.1064C26.274 15.7514 26.274 18.4273 27.9186 20.0722C29.5637 21.7173 32.24 21.7173 33.8849 20.0722C35.5299 18.4272 35.5299 15.7513 33.8849 14.1064C32.2399 12.4614 29.5637 12.4613 27.9187 14.1064H27.9186ZM47.917 1.37173C47.8665 0.676291 47.3128 0.126635 46.6195 0.0746034C43.1658 -0.185459 39.7256 0.239416 36.3535 1.27067C36.6073 3.58723 37.8056 6.09439 39.8513 8.14001C41.9214 10.2098 44.4966 11.4078 46.8547 11.6318C47.7629 8.4491 48.1935 5.04045 47.917 1.37173Z" fill="black"/>
<path d="M37.8623 10.1294C35.5223 7.78931 34.0933 4.98272 33.6347 2.25C25.1903 5.71331 17.1066 13.2762 10.7188 23.9007L13.8923 27.0743C16.0607 26.194 18.6929 25.9614 20.3625 27.6307C22.0343 29.3028 21.7974 31.934 20.9173 34.0994L24.1953 37.3774C32.3698 32.4507 41.8869 24.6889 45.934 14.362C43.1346 13.9391 40.2405 12.5077 37.8623 10.1294ZM35.873 22.0616C33.1319 24.8028 28.6711 24.8028 25.9297 22.0616C23.1883 19.3202 23.1883 14.859 25.9297 12.1179C28.6711 9.37687 33.1319 9.37687 35.873 12.1179C38.6145 14.8594 38.6145 19.3202 35.873 22.0616Z" fill="black"/>
</g>
</g>
<defs>
<clipPath id="clip0_569_4120">
<rect width="48" height="48" fill="white"/>
</clipPath>
<clipPath id="clip1_569_4120">
<rect width="48" height="48" fill="white"/>
</clipPath>
</defs>
</svg>
