<svg width="56" height="56" viewBox="0 0 56 56" fill="none" xmlns="http://www.w3.org/2000/svg">
<path d="M6.22222 56C4.51111 56 3.04681 55.3913 1.82933 54.1738C0.611852 52.9563 0.00207407 51.491 0 49.7778V6.22222C0 4.51111 0.609778 3.04681 1.82933 1.82933C3.04889 0.611852 4.51318 0.00207407 6.22222 0H49.7778C51.4889 0 52.9542 0.609778 54.1738 1.82933C55.3933 3.04889 56.0021 4.51318 56 6.22222V49.7778C56 51.4889 55.3913 52.9542 54.1738 54.1738C52.9563 55.3933 51.491 56.0021 49.7778 56H6.22222ZM9.33333 43.5555H46.6667L35 28L25.6667 40.4444L18.6667 31.1111L9.33333 43.5555Z" fill="#C8C8C8"/>
</svg>
