<svg width="20" height="21" viewBox="0 0 20 21" fill="none" xmlns="http://www.w3.org/2000/svg">
<path d="M10 0.5C15.523 0.5 20 4.977 20 10.5C20 16.023 15.523 20.5 10 20.5C8.23277 20.503 6.4966 20.0353 4.97002 19.145L0.00401546 20.5L1.35602 15.532C0.464974 14.0049 -0.00308163 12.268 1.52687e-05 10.5C1.52687e-05 4.977 4.47702 0.5 10 0.5ZM6.59202 5.8L6.39201 5.808C6.26271 5.81691 6.13636 5.85087 6.02002 5.908C5.91159 5.96951 5.81258 6.0463 5.72602 6.136C5.60602 6.249 5.53802 6.347 5.46502 6.442C5.09514 6.9229 4.89599 7.51331 4.89902 8.12C4.90102 8.61 5.02902 9.087 5.22902 9.533C5.63802 10.435 6.31102 11.39 7.19902 12.275C7.41302 12.488 7.62302 12.702 7.84902 12.901C8.95245 13.8724 10.2673 14.573 11.689 14.947L12.257 15.034C12.442 15.044 12.627 15.03 12.813 15.021C13.1042 15.0056 13.3885 14.9268 13.646 14.79C13.7769 14.7223 13.9047 14.6489 14.029 14.57C14.029 14.57 14.0714 14.5413 14.154 14.48C14.289 14.38 14.372 14.309 14.484 14.192C14.568 14.1053 14.638 14.0047 14.694 13.89C14.772 13.727 14.85 13.416 14.882 13.157C14.906 12.959 14.899 12.851 14.896 12.784C14.892 12.677 14.803 12.566 14.706 12.519L14.124 12.258C14.124 12.258 13.254 11.879 12.722 11.637C12.6663 11.6128 12.6067 11.5989 12.546 11.596C12.4776 11.5888 12.4084 11.5965 12.3432 11.6184C12.278 11.6403 12.2182 11.676 12.168 11.723C12.163 11.721 12.096 11.778 11.373 12.654C11.3315 12.7098 11.2744 12.7519 11.2088 12.7751C11.1433 12.7982 11.0723 12.8013 11.005 12.784C10.9398 12.7666 10.876 12.7446 10.814 12.718C10.69 12.666 10.647 12.646 10.562 12.61C9.98789 12.3599 9.45646 12.0215 8.98702 11.607C8.86102 11.497 8.74402 11.377 8.62402 11.261C8.23063 10.8842 7.88777 10.458 7.60401 9.993L7.54501 9.898C7.50328 9.8338 7.46905 9.76501 7.44302 9.693C7.40502 9.546 7.50402 9.428 7.50402 9.428C7.50402 9.428 7.74702 9.162 7.86002 9.018C7.97002 8.878 8.06301 8.742 8.12302 8.645C8.24102 8.455 8.27802 8.26 8.21602 8.109C7.93602 7.425 7.64668 6.74467 7.34802 6.068C7.28902 5.934 7.11402 5.838 6.95502 5.819C6.90102 5.81233 6.84701 5.807 6.79302 5.803C6.65874 5.7953 6.52411 5.79664 6.39002 5.807L6.59202 5.8Z" fill="black"/>
</svg>
