<svg width="60" height="60" viewBox="0 0 60 60" fill="none" xmlns="http://www.w3.org/2000/svg">
<rect x="0.5" y="0.5" width="59" height="59" rx="7.5" stroke="white"/>
<path d="M30 18C36.6276 18 42 23.3724 42 30C42 36.6276 36.6276 42 30 42C27.8793 42.0036 25.7959 41.4424 23.964 40.374L18.0048 42L19.6272 36.0384C18.558 34.2059 17.9963 32.1216 18 30C18 23.3724 23.3724 18 30 18ZM25.9104 24.36L25.6704 24.3696C25.5152 24.3803 25.3636 24.421 25.224 24.4896C25.0939 24.5634 24.9751 24.6556 24.8712 24.7632C24.7272 24.8988 24.6456 25.0164 24.558 25.1304C24.1142 25.7075 23.8752 26.416 23.8788 27.144C23.8812 27.732 24.0348 28.3044 24.2748 28.8396C24.7656 29.922 25.5732 31.068 26.6388 32.13C26.8956 32.3856 27.1476 32.6424 27.4188 32.8812C28.7429 34.0469 30.3207 34.8876 32.0268 35.3364L32.7084 35.4408C32.9304 35.4528 33.1524 35.436 33.3756 35.4252C33.725 35.4068 34.0662 35.3122 34.3752 35.148C34.5322 35.0668 34.6856 34.9787 34.8348 34.884C34.8348 34.884 34.8856 34.8496 34.9848 34.776C35.1468 34.656 35.2464 34.5708 35.3808 34.4304C35.4816 34.3264 35.5656 34.2056 35.6328 34.068C35.7264 33.8724 35.82 33.4992 35.8584 33.1884C35.8872 32.9508 35.8788 32.8212 35.8752 32.7408C35.8704 32.6124 35.7636 32.4792 35.6472 32.4228L34.9488 32.1096C34.9488 32.1096 33.9048 31.6548 33.2664 31.3644C33.1996 31.3353 33.128 31.3186 33.0552 31.3152C32.9731 31.3066 32.8901 31.3158 32.8118 31.3421C32.7336 31.3684 32.6619 31.4112 32.6016 31.4676C32.5956 31.4652 32.5152 31.5336 31.6476 32.5848C31.5978 32.6517 31.5292 32.7023 31.4506 32.7301C31.3719 32.7578 31.2868 32.7616 31.206 32.7408C31.1278 32.7199 31.0512 32.6935 30.9768 32.6616C30.828 32.5992 30.7764 32.5752 30.6744 32.532C29.9855 32.2319 29.3477 31.8258 28.7844 31.3284C28.6332 31.1964 28.4928 31.0524 28.3488 30.9132C27.8767 30.461 27.4653 29.9496 27.1248 29.3916L27.054 29.2776C27.0039 29.2005 26.9629 29.118 26.9316 29.0316C26.886 28.8552 27.0048 28.7136 27.0048 28.7136C27.0048 28.7136 27.2964 28.3944 27.432 28.2216C27.564 28.0536 27.6756 27.8904 27.7476 27.774C27.8892 27.546 27.9336 27.312 27.8592 27.1308C27.5232 26.31 27.176 25.4936 26.8176 24.6816C26.7468 24.5208 26.5368 24.4056 26.346 24.3828C26.2812 24.3748 26.2164 24.3684 26.1516 24.3636C25.9905 24.3544 25.8289 24.356 25.668 24.3684L25.9104 24.36Z" fill="white"/>
</svg>
